PathFileType	4	(X/Y/Z)	./resultDataOpenSim/trcMotMarkerGrf/sub06/qtm-03-04.trc
DataRate	CameraRate	NumFrames	NumMarkers	Units	OrigDataRate	OrigDataStartFrame	OrigNumFrames
250.000000	250.000000	8	24	m	250.000000	429	490
Frame#	Time	L.Toe.Tip			R.Toe.Tip			L.Ankle.Lat			R.Ankle.Lat			L.Ankle.Med			R.Ankle.Med			L.Heel			R.Heel			L.Knee.Lat			R.Knee.Lat			L.Knee.Med			R.Knee.Med			L.Thigh.Upper			R.Thigh.Upper			L.ASIS			R.ASIS			V.Sacral			L.Acromium			R.Acromium			C7			L.Elbow			R.Elbow			L.Wrist.Lat			R.Wrist.Lat
		X1	Y1	Z1	X2	Y2	Z2	X3	Y3	Z3	X4	Y4	Z4	X5	Y5	Z5	X6	Y6	Z6	X7	Y7	Z7	X8	Y8	Z8	X9	Y9	Z9	X10	Y10	Z10	X11	Y11	Z11	X12	Y12	Z12	X13	Y13	Z13	X14	Y14	Z14	X15	Y15	Z15	X16	Y16	Z16	X17	Y17	Z17	X18	Y18	Z18	X19	Y19	Z19	X20	Y20	Z20	X21	Y21	Z21	X22	Y22	Z22	X23	Y23	Z23	X24	Y24	Z24

429	1.712	1.7340898	0.033587554	0.013281436	1.1109184	0.072571657	0.16376183	1.6111391	0.066090519	-0.020886083	1.1146094	0.21191582	0.19718415	1.6070651	0.080128711	0.065744186	1.1576486	0.20006502	0.11904583	1.5320531	0.039092628	0.015277633	1.0970174	0.25784783	0.13207731	1.6649583	0.43798708	-0.033516426	1.456504	0.38938575	0.24349097	1.6342432	0.43348074	0.082373643	1.45992	0.36391547	0.11003988	1.5088051	0.80277342	-0.11081052	1.4504277	0.74886366	0.22528488	1.565434	0.84071257	-0.054310828	1.5404364	0.81452968	0.18919945	1.3626657	0.89564118	0.063085076	1.4715505	1.3058997	-0.12616935	1.4809763	1.2959723	0.23736116	1.3931806	1.3398366	0.057690846	1.3852332	1.0036649	-0.17764328	1.4498448	0.97362883	0.29526821	1.47919	0.78310061	-0.22789104	1.649009	0.82840157	0.29219823
430	1.716	1.7340773	0.033589541	0.013190473	1.1271419	0.073763847	0.16449906	1.6111109	0.065971372	-0.020935729	1.1279081	0.21344566	0.19662775	1.6072316	0.08025559	0.065648835	1.1711014	0.20178471	0.11867894	1.5319966	0.039086168	0.015331669	1.1093004	0.25840512	0.13103771	1.6669553	0.43740391	-0.033897546	1.468829	0.39101575	0.24431952	1.6366728	0.43303321	0.082064172	1.4721521	0.36592987	0.11051408	1.51444	0.80408006	-0.11099249	1.4572389	0.75068867	0.22450799	1.5710603	0.84200307	-0.054638466	1.5464539	0.81645376	0.18934532	1.3687731	0.89728298	0.062805292	1.4783624	1.3074401	-0.12635279	1.4864551	1.2976881	0.23722091	1.3993604	1.3414266	0.05717139	1.3939435	1.0044667	-0.17803856	1.4543532	0.97559014	0.29437171	1.4900646	0.784649	-0.22760705	1.6505112	0.8268757	0.29326577
431	1.72	1.7340575	0.033592722	0.013119981	1.1437759	0.07478492	0.16509134	1.6110769	0.065840908	-0.020884984	1.1413754	0.21469552	0.19606291	1.6073583	0.08044555	0.065569272	1.1846727	0.20328852	0.11820402	1.5319472	0.039082461	0.015466935	1.1214933	0.25864441	0.13020622	1.6688316	0.43686859	-0.034176412	1.4811565	0.39284694	0.24510001	1.6387919	0.4326802	0.081842042	1.4845603	0.36797143	0.1110856	1.5198933	0.80538331	-0.111157	1.4639429	0.75260692	0.22384782	1.5766468	0.84334662	-0.054939158	1.5524399	0.81843457	0.18948783	1.374818	0.89897179	0.062550507	1.4851249	1.3090819	-0.1265251	1.4918508	1.2994622	0.23714547	1.4054976	1.3430729	0.056692755	1.4026244	1.0053254	-0.17840045	1.4588076	0.97758491	0.29348242	1.5009983	0.78630844	-0.22728287	1.6518812	0.82550929	0.29436341
432	1.724	1.7340246	0.033598344	0.013067194	1.1607177	0.075573257	0.16575439	1.611025	0.065716836	-0.020769715	1.1549455	0.21564355	0.19548903	1.6074409	0.080661546	0.065507225	1.1984053	0.20454901	0.11771189	1.5318963	0.039111078	0.015580153	1.1337445	0.25854558	0.12950141	1.6706127	0.4363846	-0.034345184	1.4934767	0.39489721	0.24583312	1.6406101	0.43243135	0.081700437	1.4971079	0.37005311	0.11169564	1.5252435	0.80665863	-0.11131385	1.4705989	0.75459565	0.22328839	1.5821396	0.84473975	-0.055204627	1.558393	0.82046298	0.18961766	1.3805914	0.90075518	0.062326254	1.4918451	1.3108293	-0.12669273	1.4971677	1.301288	0.23712687	1.4115891	1.3447648	0.056241566	1.4112791	1.0062437	-0.17874317	1.462953	0.97961473	0.29263131	1.5119688	0.78807201	-0.22692489	1.6531159	0.82430458	0.29550288
433	1.728	1.7339833	0.033606606	0.013031038	1.1778982	0.076132844	0.16652571	1.6109555	0.065641307	-0.02067802	1.1686263	0.21627705	0.19491451	1.6074918	0.080847785	0.065468103	1.2123282	0.20554181	0.11728375	1.5318426	0.039182909	0.015608978	1.1461941	0.25812363	0.12883306	1.6723259	0.43595779	-0.034399523	1.5057971	0.39716228	0.24648814	1.6421665	0.43228414	0.081633722	1.5096516	0.37221762	0.11225899	1.5305789	0.80788744	-0.11146922	1.4772185	0.75664751	0.22282178	1.5875546	0.84617725	-0.055454953	1.5643116	0.8225329	0.18972504	1.3858613	0.90269105	0.062144638	1.4985166	1.3126533	-0.12684798	1.5024152	1.3031583	0.23715325	1.4176395	1.3464848	0.055810668	1.4199201	1.0072205	-0.1790714	1.4665004	0.9817169	0.29188106	1.5229705	0.78993185	-0.226537	1.654224	0.82326719	0.29667973
434	1.732	1.7339436	0.033615965	0.013012254	1.1952652	0.076508026	0.16736739	1.6108817	0.06564582	-0.02068041	1.1824538	0.21658525	0.19436078	1.607522	0.080989672	0.065451807	1.2264437	0.20624613	0.11695636	1.5317922	0.039289512	0.015557614	1.158928	0.25743391	0.12812912	1.6739866	0.43559308	-0.034346033	1.5181135	0.39960699	0.24702167	1.6435159	0.43222867	0.081640377	1.5221333	0.37448773	0.112739	1.5359069	0.80906586	-0.11162467	1.4837964	0.75875952	0.22244456	1.5930018	0.84764772	-0.055736725	1.5702066	0.82463961	0.18980173	1.3906986	0.90476796	0.062011683	1.5051276	1.3145069	-0.12697229	1.5076132	1.3050659	0.23721411	1.4236586	1.3482224	0.055402537	1.4285569	1.0082522	-0.17938332	1.4695902	0.9839092	0.2912455	1.5339986	0.79188489	-0.22611017	1.6552244	0.82239881	0.29787871
435	1.736	1.733914	0.033624363	0.013010791	1.2127846	0.076746461	0.16825014	1.6108227	0.065729457	-0.020784216	1.1964424	0.2165637	0.19385704	1.6075342	0.081101255	0.065454348	1.2407295	0.20665967	0.11672001	1.5317496	0.039408287	0.015463751	1.1719702	0.25651503	0.12734437	1.6755987	0.43529083	-0.034199338	1.530371	0.40219309	0.24742769	1.6447031	0.43224858	0.081719326	1.5346955	0.37684835	0.11314369	1.5411823	0.81020474	-0.11178126	1.4903276	0.76092776	0.22215425	1.5985575	0.84913874	-0.056075314	1.5761032	0.8267798	0.18984436	1.3955061	0.90688396	0.0619266	1.5116759	1.3163643	-0.12705341	1.5127819	1.3070055	0.23730198	1.4296553	1.3499789	0.055023494	1.4371904	1.0093358	-0.17967756	1.472829	0.98617355	0.29066718	1.545044	0.79393078	-0.22563164	1.6561363	0.82169475	0.2990882
436	1.74	1.733895	0.033629953	0.013024051	1.2304436	0.07687914	0.16916518	1.6107946	0.065859962	-0.020933919	1.2105763	0.21622748	0.19342645	1.6075271	0.081194004	0.065472025	1.2551549	0.20680125	0.11654611	1.5317094	0.039506567	0.015371179	1.1852593	0.25535581	0.12651714	1.6771632	0.43504521	-0.033974816	1.5424769	0.4049116	0.24774758	1.6457086	0.43231625	0.081856052	1.547564	0.37928602	0.1134884	1.5463405	0.81130853	-0.11193531	1.4968121	0.76314657	0.2219479	1.6041843	0.85063913	-0.056454296	1.5820243	0.82895087	0.18985411	1.400585	0.90893595	0.061896499	1.5181718	1.3182307	-0.12709223	1.5179323	1.308972	0.23740813	1.435636	1.3517665	0.054681369	1.445814	1.0104679	-0.17995307	1.4766533	0.98849183	0.29009164	1.5561036	0.7960692	-0.22509835	1.6569693	0.82114443	0.30030712
